# Exported from ProBuilder
# http://www.procore3d.com/probuilder
# 12/13/2020 1:14:39 AM

mtllib ./Cube.mtl
o Cube

g Cube
v -9.5 29.5 180.4
v -19.5 29.5 180.4
v -9.5 39.5 180.4
v -19.5 39.5 180.4
v -19.5 29.5 180.4
v -19.5 29.5 170.4
v -19.5 39.5 180.4
v -19.5 39.5 170.4
v -19.5 29.5 170.4
v -9.5 29.5 170.4
v -19.5 39.5 170.4
v -9.5 39.5 170.4
v -9.5 29.5 170.4
v -9.5 29.5 180.4
v -9.5 39.5 170.4
v -9.5 39.5 180.4
v -9.5 39.5 180.4
v -19.5 39.5 180.4
v -9.5 39.5 170.4
v -19.5 39.5 170.4
v -9.5 29.5 170.4
v -19.5 29.5 170.4
v -9.5 29.5 180.4
v -19.5 29.5 180.4

vn 0 0 10
vn 0 0 10
vn 0 0 10
vn 0 0 10
vn -10 0 0
vn -10 0 0
vn -10 0 0
vn -10 0 0
vn 0 0 -10
vn 0 0 -10
vn 0 0 -10
vn 0 0 -10
vn 10 0 0
vn 10 0 0
vn 10 0 0
vn 10 0 0
vn 0 10 0
vn 0 10 0
vn 0 10 0
vn 0 10 0
vn 0 -10 0
vn 0 -10 0
vn 0 -10 0
vn 0 -10 0

vt 0 0
vt -1 0
vt 0 1
vt -1 1
vt 0 0
vt -1 0
vt 0 1
vt -1 1
vt 1 0
vt 0 0
vt 1 1
vt 0 1
vt 1 0
vt 0 0
vt 1 1
vt 0 1
vt 0 0
vt 1 0
vt 0 -1
vt 1 -1
vt 0 -1
vt -1 -1
vt 0 0
vt -1 0

g Cube
usemtl DefaultHDMaterial
f 3/3/3 4/4/4 2/2/2 1/1/1
f 7/7/7 8/8/8 6/6/6 5/5/5
f 11/11/11 12/12/12 10/10/10 9/9/9
f 15/15/15 16/16/16 14/14/14 13/13/13
f 19/19/19 20/20/20 18/18/18 17/17/17
f 23/23/23 24/24/24 22/22/22 21/21/21

